<svg width="393" height="96" viewBox="0 0 393 96" fill="none" xmlns="http://www.w3.org/2000/svg">
<rect width="94.5059" height="95.8369" fill="white"/>
<ellipse cx="60.4011" cy="47.9181" rx="19.9284" ry="20.2091" fill="#121212"/>
<ellipse cx="25.6808" cy="47.9191" rx="11.5051" ry="11.6671" fill="#121212"/>
<path d="M374.676 25.3718C374.577 32.9476 374.083 35.4132 372.849 38.906H381.737V25.3718H374.676ZM369.145 20.354H387.811V38.906H391.119V48.9474H385.391V43.9237H370.182V48.9474H364.454V38.906H367.17C368.8 34.6753 369.145 30.9307 369.145 20.354Z" fill="#FAFAFA"/>
<path d="M339.76 20.354H345.784V29.753H354.771V20.354H360.845V43.9237H354.771V34.2788H345.784V43.9237H339.76V20.354Z" fill="#FAFAFA"/>
<path d="M312.002 20.3554H318.027V35.9036H319.014L327.113 20.3554H334.421V43.9251H328.347V28.4262H327.36L319.311 43.9251H312.002V20.3554ZM316.101 10.9043H320.496C320.496 14.0035 321.582 14.8398 323.36 14.8398C325.088 14.8398 326.224 14.0035 326.224 10.9043H330.569V11.347C330.569 16.168 327.804 18.2342 323.36 18.2342C318.916 18.2342 316.101 16.2172 316.101 11.347V10.9043Z" fill="#FAFAFA"/>
<path d="M296.431 19.9118H296.974C303.591 19.9118 306.9 22.9126 306.9 28.5207V43.9242H300.875V41.0218H299.937C298.456 43.3831 296.333 44.367 293.419 44.367C289.37 44.367 286.16 42.2517 286.16 37.0863C286.16 32.3637 288.876 29.9503 295.888 29.9503H300.875V28.5207C300.875 25.6674 299.394 24.4868 296.974 24.4868H296.431C294.209 24.4868 292.58 25.6674 292.58 28.4715V28.865H286.703V28.4715C286.703 22.9126 290.358 19.9118 296.431 19.9118ZM296.53 33.6398C293.222 33.6398 291.987 34.2823 291.987 36.4468C291.987 38.6113 293.37 39.7428 295.74 39.7428C298.308 39.7428 300.875 39.1987 300.875 34.8204V33.6398H296.53Z" fill="#FAFAFA"/>
<path d="M252.429 20.354H261.811L266.848 33.3933H268.181L273.07 20.354H282.008V43.9237H275.934V28.1266H274.798L270.255 39.8377H263.885L259.293 28.1266H258.157V43.9237H252.429V20.354Z" fill="#FAFAFA"/>
<path d="M227.716 20.354H248.85V25.3718H241.295V43.9237H235.271V25.3718H227.716V20.354Z" fill="#FAFAFA"/>
<path d="M214.258 19.9118H214.801C221.27 19.9118 225.369 23.4537 225.369 29.6551V33.5414H209.37V34.4299C209.37 38.267 211.295 39.9887 214.258 39.9887H214.801C217.715 39.9887 219.295 38.5621 219.591 35.5121H225.221C224.924 41.1202 221.32 44.367 214.801 44.367H214.258C207.839 44.367 203.592 40.8742 203.592 33.9871V29.6551C203.592 23.4537 207.839 19.9118 214.258 19.9118ZM214.209 24.3392C211.147 24.3392 209.37 26.1102 209.37 29.5538V29.4091H219.591V29.5538C219.591 26.1102 217.665 24.3392 214.752 24.3392H214.209Z" fill="#FAFAFA"/>
<path d="M180.718 20.354H186.742V29.7038H187.977L194.989 20.354H201.359L193.754 30.5401V32.3111L202.099 43.9237H195.186L187.977 34.2788H186.742V43.9237H180.718V20.354Z" fill="#FAFAFA"/>
<path d="M164.574 19.9118H165.117C171.339 19.9118 175.882 23.4537 175.882 30.2917V33.9871C175.882 40.8742 171.339 44.367 165.117 44.367H164.574C158.302 44.367 153.759 40.8742 153.759 33.9871V30.2917C153.759 23.4537 158.302 19.9118 164.574 19.9118ZM164.574 24.8312C161.463 24.8312 159.784 26.7005 159.784 30.1933V34.0855C159.784 37.5783 161.463 39.4968 164.574 39.4968H165.117C168.178 39.4968 169.857 37.5783 169.857 34.0855V30.1933C169.857 26.7005 168.178 24.8312 165.117 24.8312H164.574Z" fill="#FAFAFA"/>
<path d="M127.645 11.6514H139.496C147.446 11.6514 150.656 14.9965 150.656 21.0474V22.9689C150.656 28.8721 147.397 32.3157 139.496 32.3157H133.916V43.9254H127.645V11.6514ZM133.916 16.8659V27.1012H139.199C142.755 27.1012 144.384 25.7237 144.384 22.7721V21.2442C144.384 18.2433 142.804 16.8659 139.199 16.8659H133.916Z" fill="#FAFAFA"/>
<g opacity="0.7">
<path fill-rule="evenodd" clip-rule="evenodd" d="M244.009 76.558H246.262L246.052 84.3735H242.848V79.3908H232.073V84.3867H228.826L228.687 76.558H230.128C230.343 76.3161 230.566 75.9812 230.8 75.5535C231.042 75.1162 231.271 74.5438 231.485 73.8368C231.709 73.1204 231.901 72.232 232.059 71.1714C232.227 70.1109 232.348 68.8318 232.423 67.3341L232.87 59.0721H244.009V76.558ZM235.823 67.3341C235.757 68.6364 235.646 69.8089 235.487 70.8508C235.328 71.8924 235.133 72.8225 234.899 73.641C234.666 74.4596 234.405 75.1808 234.116 75.8041C233.99 76.0706 233.858 76.3213 233.724 76.558H240.623V61.9191H236.107L235.823 67.3341Z" fill="#F0F0F0"/>
<path d="M165.499 58.7941C166.451 58.7941 167.31 58.9194 168.075 59.1706C168.849 59.4125 169.511 59.7755 170.062 60.2592C170.612 60.7429 171.031 61.3479 171.32 62.0734C171.619 62.7897 171.769 63.6225 171.769 64.5713C171.769 65.2691 171.628 65.9257 171.348 66.5397C171.078 67.1535 170.691 67.693 170.188 68.158C169.858 68.468 169.482 68.7333 169.061 68.9565C169.596 69.1746 170.06 69.4565 170.453 69.8047C170.966 70.2513 171.358 70.8051 171.628 71.4656C171.899 72.1168 172.034 72.8655 172.034 73.712C172.034 74.6609 171.871 75.5083 171.545 76.2526C171.227 76.9874 170.775 77.6109 170.188 78.1225C169.609 78.6342 168.918 79.0197 168.116 79.2802C167.323 79.5406 166.451 79.6708 165.499 79.6708C164.734 79.6708 163.978 79.5592 163.232 79.336C162.486 79.1034 161.81 78.75 161.204 78.2757C160.598 77.7919 160.112 77.1775 159.748 76.4332C159.384 75.6891 159.203 74.7962 159.202 73.7546H162.603C162.603 74.3219 162.724 74.8427 162.967 75.3171C163.219 75.7822 163.559 76.1541 163.988 76.4332C164.426 76.7029 164.93 76.8379 165.499 76.838C166.171 76.838 166.741 76.703 167.207 76.4332C167.673 76.1634 168.027 75.7914 168.27 75.3171C168.522 74.8334 168.648 74.2941 168.648 73.6988C168.648 73.1315 168.583 72.638 168.453 72.2195C168.331 71.8011 168.144 71.4613 167.893 71.2008C167.641 70.931 167.332 70.7353 166.969 70.6144C166.614 70.4842 166.199 70.4186 165.723 70.4186H163.723V67.6274H165.723C166.357 67.6274 166.866 67.5021 167.248 67.2509C167.64 66.9998 167.925 66.6465 168.102 66.1907C168.289 65.7348 168.382 65.2044 168.382 64.5998C168.382 64.0603 168.28 63.5669 168.075 63.1204C167.869 62.674 167.557 62.3158 167.137 62.046C166.717 61.7762 166.171 61.6411 165.499 61.6411C165.005 61.6412 164.552 61.7616 164.142 62.0034C163.741 62.2359 163.424 62.5667 163.191 62.9946C162.967 63.4226 162.855 63.9255 162.855 64.5024H159.454C159.454 63.6185 159.613 62.8269 159.931 62.1292C160.248 61.4223 160.686 60.8222 161.245 60.3293C161.805 59.8362 162.449 59.4595 163.176 59.199C163.904 58.9292 164.678 58.7942 165.499 58.7941Z" fill="#F0F0F0"/>
<path d="M213.711 58.7941C215.12 58.7941 216.305 59.0642 217.266 59.6038C218.227 60.1434 218.968 60.9341 219.49 61.976C220.013 63.018 220.316 64.288 220.4 65.7858H217.014C216.967 64.7718 216.827 63.9626 216.594 63.3579C216.37 62.7439 216.025 62.3016 215.559 62.0318C215.102 61.762 214.486 61.6269 213.711 61.6269C213.068 61.627 212.513 61.7483 212.046 61.9902C211.589 62.2321 211.211 62.5951 210.913 63.0788C210.623 63.5533 210.404 64.1533 210.255 64.8788C210.115 65.595 210.045 66.4368 210.045 67.4041V71.0334C210.045 71.9635 210.106 72.7867 210.227 73.503C210.348 74.2193 210.544 74.8289 210.814 75.3313C211.085 75.8244 211.445 76.2011 211.893 76.4616C212.34 76.7127 212.9 76.838 213.572 76.838C214.374 76.838 215.013 76.7127 215.489 76.4616C215.974 76.2104 216.332 75.7867 216.566 75.1913C216.799 74.5959 216.943 73.7866 216.999 72.7633H220.386C220.32 74.2333 220.022 75.4847 219.49 76.5174C218.959 77.5407 218.194 78.3226 217.196 78.8622C216.207 79.4016 214.999 79.6708 213.572 79.6708C212.49 79.6708 211.519 79.4761 210.661 79.0854C209.812 78.6946 209.089 78.131 208.492 77.396C207.895 76.6518 207.438 75.7446 207.12 74.6749C206.813 73.6052 206.659 72.3914 206.659 71.0334V67.4326C206.659 66.0742 206.818 64.86 207.135 63.7901C207.461 62.7202 207.928 61.8132 208.534 61.0689C209.141 60.3247 209.878 59.762 210.745 59.3806C211.622 58.9899 212.611 58.7942 213.711 58.7941Z" fill="#F0F0F0"/>
<path d="M271.906 58.7941C272.858 58.7941 273.717 58.9194 274.482 59.1706C275.256 59.4125 275.919 59.7755 276.469 60.2592C277.019 60.7429 277.439 61.3479 277.728 62.0734C278.026 62.7897 278.176 63.6225 278.176 64.5713C278.176 65.2691 278.036 65.9257 277.756 66.5397C277.485 67.1535 277.098 67.693 276.595 68.158C276.265 68.468 275.889 68.7333 275.469 68.9565C276.003 69.1746 276.467 69.4565 276.86 69.8047C277.373 70.2513 277.765 70.8051 278.036 71.4656C278.306 72.1168 278.441 72.8655 278.441 73.712C278.441 74.6609 278.278 75.5083 277.952 76.2526C277.635 76.9874 277.182 77.6109 276.595 78.1225C276.016 78.6342 275.326 79.0197 274.523 79.2802C273.73 79.5406 272.858 79.6708 271.906 79.6708C271.142 79.6708 270.386 79.5592 269.64 79.336C268.893 79.1034 268.217 78.75 267.611 78.2757C267.005 77.7919 266.519 77.1775 266.155 76.4332C265.792 75.6891 265.61 74.7962 265.61 73.7546H269.011C269.011 74.3219 269.132 74.8427 269.374 75.3171C269.626 75.7822 269.966 76.1541 270.395 76.4332C270.834 76.7029 271.337 76.8379 271.906 76.838C272.578 76.838 273.148 76.703 273.614 76.4332C274.081 76.1634 274.435 75.7914 274.677 75.3171C274.929 74.8334 275.055 74.2941 275.055 73.6988C275.055 73.1315 274.99 72.638 274.86 72.2195C274.739 71.8011 274.552 71.4613 274.3 71.2008C274.048 70.931 273.74 70.7353 273.376 70.6144C273.021 70.4842 272.606 70.4186 272.13 70.4186H270.13V67.6274H272.13C272.765 67.6274 273.273 67.5021 273.656 67.2509C274.048 66.9998 274.333 66.6465 274.51 66.1907C274.696 65.7348 274.79 65.2044 274.79 64.5998C274.79 64.0603 274.687 63.5669 274.482 63.1204C274.277 62.674 273.964 62.3158 273.544 62.046C273.124 61.7762 272.578 61.6411 271.906 61.6411C271.412 61.6412 270.96 61.7616 270.549 62.0034C270.148 62.2359 269.831 62.5667 269.598 62.9946C269.374 63.4226 269.263 63.9255 269.263 64.5024H265.862C265.862 63.6185 266.021 62.8269 266.338 62.1292C266.655 61.4223 267.093 60.8222 267.653 60.3293C268.212 59.8362 268.856 59.4595 269.584 59.199C270.311 58.9292 271.086 58.7942 271.906 58.7941Z" fill="#F0F0F0"/>
<path d="M301.779 73.2087L308.874 59.0721H312.162V79.3918H308.832V65.3384L301.779 79.3918H298.463V59.0721H301.779V73.2087Z" fill="#F0F0F0"/>
<path fill-rule="evenodd" clip-rule="evenodd" d="M137.737 61.9191H130.112V66.8177H133.358C134.673 66.8177 135.802 67.078 136.744 67.5989C137.686 68.1199 138.405 68.846 138.899 69.7763C139.403 70.7066 139.655 71.7948 139.655 73.0413C139.655 73.981 139.51 74.8371 139.221 75.6093C138.941 76.3813 138.526 77.0508 137.976 77.6182C137.435 78.1858 136.777 78.6231 136.002 78.9301C135.228 79.2371 134.346 79.3908 133.358 79.3908H126.711V59.0721H137.737V61.9191ZM130.112 76.558H133.358C134.029 76.558 134.576 76.3956 134.995 76.0699C135.424 75.7351 135.741 75.3023 135.947 74.7723C136.161 74.2328 136.269 73.6464 136.269 73.0139C136.269 72.3999 136.161 71.8412 135.947 71.3388C135.741 70.8272 135.424 70.422 134.995 70.1243C134.576 69.8173 134.029 69.6647 133.358 69.6647H130.112V76.558Z" fill="#F0F0F0"/>
<path d="M145.761 73.2087L152.856 59.0721H156.144V79.3908H152.814V65.3384L145.761 79.3908H142.445V59.0721H145.761V73.2087Z" fill="#F0F0F0"/>
<path d="M178.63 67.5289H185.682V59.0721H189.068V79.3908H185.682V70.3759H178.63V79.3908H175.229V59.0721H178.63V67.5289Z" fill="#F0F0F0"/>
<path d="M204.167 61.9191H196.303V67.5289H203.061V70.3201H196.303V76.558H204.251V79.3908H192.902V59.0721H204.167V61.9191Z" fill="#F0F0F0"/>
<path d="M252.168 73.2087L259.263 59.0721H262.551V79.3908H259.221V65.3384L252.168 79.3908H248.852V59.0721H252.168V73.2087Z" fill="#F0F0F0"/>
<path fill-rule="evenodd" clip-rule="evenodd" d="M296.147 79.3908H292.579L291.254 74.688H285.043L283.721 79.3908H280.167L286.632 59.0721H289.654L296.147 79.3908ZM285.843 71.841H290.452L288.143 63.6521L285.843 71.841Z" fill="#F0F0F0"/>
<path d="M319.467 67.5289H326.52V59.0721H329.906V79.3908H326.52V70.3759H319.467V79.3908H316.067V59.0721H319.467V67.5289Z" fill="#F0F0F0"/>
<path d="M303.304 53.8672C303.304 54.3787 303.458 54.83 303.766 55.2207C304.074 55.6114 304.597 55.8071 305.334 55.8071C306.071 55.8071 306.588 55.6114 306.887 55.2207C307.195 54.8299 307.349 54.3788 307.349 53.8672H309.867C309.867 54.6394 309.681 55.3233 309.308 55.9187C308.944 56.5139 308.422 56.9789 307.741 57.3138C307.069 57.6488 306.267 57.8161 305.334 57.8161C303.934 57.8161 302.824 57.4492 302.003 56.7142C301.192 55.9792 300.786 55.0301 300.786 53.8672H303.304Z" fill="#F0F0F0"/>
</g>
</svg>
