<svg width="393" height="96" viewBox="0 0 393 96" fill="none" xmlns="http://www.w3.org/2000/svg">
<rect width="94.5059" height="95.8369" fill="white"/>
<ellipse cx="60.4011" cy="47.9181" rx="19.9284" ry="20.2091" fill="#121212"/>
<ellipse cx="25.6808" cy="47.9191" rx="11.5051" ry="11.6671" fill="#121212"/>
<path d="M382.269 11.377H388.468V46.0336H382.269V43.2494H381.304C379.83 45.3249 377.594 46.4892 374.698 46.4892H374.139C368.905 46.4892 365.704 42.9963 365.704 35.808V31.9957C365.704 24.8074 368.905 21.3145 374.139 21.3145H374.698C377.594 21.3145 379.83 22.5294 381.304 24.453H382.269V11.377ZM376.832 26.3767C373.783 26.3767 371.903 28.3509 371.903 31.8945V35.9092C371.903 39.5034 373.783 41.4776 376.832 41.4776H377.391C380.44 41.4776 382.269 39.5034 382.269 35.9092V31.8945C382.269 28.3509 380.44 26.3767 377.391 26.3767H376.832Z" fill="#FAFAFA"/>
<path d="M338.721 21.7704H344.92V24.7065H345.885C347.054 22.7322 349.341 21.3148 352.44 21.3148H352.999C357.522 21.3148 360.52 23.9977 360.52 30.5786V46.0339H354.27V31.8442C354.27 28.4019 352.644 26.7313 349.95 26.7313H349.391C346.698 26.7313 344.92 28.4019 344.92 31.8442V46.0339H338.721V21.7704Z" fill="#FAFAFA"/>
<path d="M326.514 21.7693H332.714V46.0329H326.514V21.7693ZM329.36 12.5405H329.817C331.799 12.5405 333.12 13.8061 333.12 15.3248V16.3294C333.12 17.8987 331.799 19.1643 329.817 19.1643H329.36C327.429 19.1643 326.057 17.8987 326.057 16.3294V15.3248C326.057 13.8061 327.429 12.5405 329.36 12.5405Z" fill="#FAFAFA"/>
<path d="M285.824 21.7704H292.023V24.7065H292.887C294.056 22.7322 296.241 21.3148 299.036 21.3148H299.544C302.288 21.3148 304.27 22.3778 305.489 24.7065H306.607C307.928 22.4285 310.367 21.3148 313.01 21.3148H313.518C318.294 21.3148 320.835 24.0484 320.835 30.6799V46.0339H314.585V31.3886C314.585 28.0475 313.162 26.6301 310.774 26.6301H310.266C307.877 26.6301 306.455 28.0475 306.455 31.4392V46.0339H300.204V31.3886C300.204 28.0475 298.731 26.6301 296.393 26.6301H295.885C293.497 26.6301 292.023 28.0475 292.023 31.3886V46.0339H285.824V21.7704Z" fill="#FAFAFA"/>
<path d="M263.766 14.6323H270.016V21.77H280.483V26.4272H270.016V38.4909C270.016 40.5664 270.93 41.6294 272.556 41.6294H273.115C274.792 41.6294 275.605 40.5664 275.605 38.4909V36.2051H281.144V38.4909C281.144 44.363 277.689 46.4892 273.014 46.4892H272.455C267.678 46.4892 263.766 44.363 263.766 38.4909V26.4272H260.463V21.77H263.766V14.6323Z" fill="#FAFAFA"/>
<path d="M246.126 20.6135H246.685C253.341 20.6135 257.559 24.2583 257.559 31.3454V35.3446H241.095V36.2635C241.095 40.2121 243.077 41.9839 246.126 41.9839H246.685C249.683 41.9839 251.309 40.5158 251.613 37.3772H257.406C257.101 43.1482 253.392 46.4892 246.685 46.4892H246.126C239.52 46.4892 235.15 42.8951 235.15 35.808V31.3454C235.15 24.2583 239.52 20.6135 246.126 20.6135ZM246.075 25.1695C242.924 25.1695 241.095 26.9919 241.095 30.5355V31.0923H251.613V30.5355C251.613 26.9919 249.632 25.1695 246.634 25.1695H246.075Z" fill="#FAFAFA"/>
<path d="M211.093 11.377H217.292V31.3961H218.562L225.778 21.7701H232.333L224.508 32.2566V34.079L233.095 46.0336H225.981L218.562 36.1039H217.292V46.0336H211.093V11.377Z" fill="#FAFAFA"/>
<path d="M194.457 21.3148H195.016C201.469 21.3148 205.483 24.8583 205.483 31.2367V31.3964H199.487V31.2367C199.487 28.3006 198.065 26.377 195.016 26.377H194.457C191.408 26.377 189.833 28.3006 189.833 31.7936V36.0614C189.833 39.4531 191.408 41.478 194.457 41.478H195.016C198.014 41.478 199.589 39.5037 199.589 36.7195V36.7117H205.585V36.7195C205.585 42.8954 201.52 46.4895 195.016 46.4895H194.457C187.953 46.4895 183.633 42.7941 183.633 35.8083V32.0467C183.633 24.9596 187.953 21.3148 194.457 21.3148Z" fill="#FAFAFA"/>
<path d="M167.371 21.3148H167.93C174.333 21.3148 179.008 24.9596 179.008 31.996V35.8083C179.008 42.8954 174.333 46.4895 167.93 46.4895H167.371C160.918 46.4895 156.243 42.8954 156.243 35.8083V31.996C156.243 24.9596 160.918 21.3148 167.371 21.3148ZM167.371 26.377C164.17 26.377 162.443 28.3006 162.443 31.8948V35.9095C162.443 39.5037 164.17 41.478 167.371 41.478H167.93C171.081 41.478 172.809 39.5037 172.809 35.9095V31.8948C172.809 28.3006 171.081 26.377 167.93 26.377H167.371Z" fill="#FAFAFA"/>
<path d="M127.977 13.5185H140.426C147.438 13.5185 151.554 16.7583 151.554 22.9849V24.4607C151.554 28.5611 149.674 31.4972 146.32 32.9652L152.926 46.0335H146.117L140.07 34.0283H134.43V46.0335H127.977V13.5185ZM134.43 18.7326V28.8142H139.765C143.119 28.8142 145.202 27.3461 145.202 24.2076V23.238C145.202 20.0994 143.119 18.7326 139.765 18.7326H134.43Z" fill="#FAFAFA"/>
<g opacity="0.7">
<path d="M145.672 73.9533C145.672 74.8693 145.792 75.5786 146.034 76.0807C146.285 76.5828 146.638 76.9308 147.094 77.1246C147.558 77.3184 148.116 77.4153 148.767 77.4153C149.417 77.4153 149.97 77.3184 150.426 77.1246C150.89 76.9308 151.244 76.5828 151.485 76.0807C151.736 75.5786 151.862 74.8693 151.862 73.9533V60.5944H155.249V73.9533C155.249 75.4243 154.957 76.6093 154.371 77.5078C153.795 78.4063 153.014 79.0626 152.029 79.4766C151.053 79.8906 149.966 80.0977 148.767 80.0977C147.521 80.0977 146.41 79.8906 145.434 79.4766C144.459 79.0626 143.692 78.4063 143.134 77.5078C142.577 76.6093 142.298 75.4243 142.298 73.9533V60.5944H145.672V73.9533Z" fill="#F0F0F0"/>
<path d="M164.507 60.3301C165.817 60.3301 166.937 60.5944 167.867 61.1229C168.805 61.6514 169.521 62.3607 170.014 63.2503C170.515 64.1399 170.766 65.1267 170.766 66.2101H167.393C167.392 65.5848 167.29 65.0297 167.086 64.5452C166.881 64.0608 166.565 63.6819 166.138 63.4089C165.71 63.1358 165.157 62.9992 164.479 62.9992C163.856 62.9992 163.34 63.1138 162.931 63.3428C162.532 63.5718 162.234 63.8847 162.039 64.281C161.853 64.6773 161.76 65.1311 161.76 65.642C161.76 65.9942 161.839 66.3159 161.997 66.6065C162.155 66.8884 162.383 67.1483 162.68 67.3862C162.978 67.624 163.34 67.8486 163.768 68.06C164.195 68.2715 164.688 68.4741 165.246 68.6679C166.193 68.9938 167.021 69.355 167.727 69.7514C168.433 70.1478 169.014 70.5927 169.47 71.086C169.934 71.5704 170.278 72.1211 170.501 72.7377C170.734 73.3542 170.85 74.0547 170.85 74.8386C170.85 75.6314 170.706 76.3539 170.418 77.0057C170.139 77.6487 169.73 78.1993 169.191 78.6574C168.652 79.1154 168.001 79.4722 167.239 79.7277C166.477 79.9743 165.622 80.0977 164.674 80.0977C163.8 80.0977 162.959 79.9743 162.15 79.7277C161.351 79.481 160.635 79.1066 160.003 78.6045C159.372 78.0936 158.87 77.4549 158.498 76.6885C158.135 75.9222 157.954 75.0235 157.954 73.993H161.342C161.342 74.6095 161.421 75.1382 161.579 75.5786C161.737 76.0102 161.965 76.367 162.262 76.6489C162.569 76.922 162.927 77.1246 163.336 77.2567C163.754 77.3801 164.218 77.4417 164.73 77.4417C165.362 77.4417 165.878 77.336 166.277 77.1246C166.686 76.9044 166.988 76.6004 167.183 76.2129C167.378 75.8253 167.476 75.3759 167.476 74.8651C167.476 74.4688 167.43 74.1162 167.337 73.808C167.253 73.491 167.09 73.2045 166.849 72.9491C166.607 72.6937 166.263 72.4425 165.817 72.1959C165.38 71.9493 164.813 71.6982 164.116 71.4427C163.317 71.152 162.569 70.8349 161.872 70.4914C161.184 70.139 160.575 69.7426 160.045 69.3021C159.525 68.8529 159.116 68.3287 158.818 67.7297C158.521 67.1307 158.372 66.4347 158.372 65.642C158.372 64.8581 158.516 64.1443 158.804 63.5013C159.102 62.8496 159.52 62.29 160.059 61.8232C160.608 61.3476 161.258 60.9819 162.011 60.7265C162.764 60.4622 163.596 60.3301 164.507 60.3301Z" fill="#F0F0F0"/>
<path d="M218.795 60.3301C220.106 60.3301 221.226 60.5944 222.155 61.1229C223.094 61.6514 223.81 62.3607 224.302 63.2503C224.804 64.1399 225.055 65.1267 225.055 66.2101H221.681C221.681 65.5848 221.579 65.0297 221.374 64.5452C221.17 64.0608 220.854 63.6819 220.426 63.4089C219.999 63.1358 219.446 62.9992 218.767 62.9992C218.145 62.9992 217.629 63.1138 217.22 63.3428C216.82 63.5718 216.523 63.8847 216.328 64.281C216.142 64.6773 216.049 65.1311 216.049 65.642C216.049 65.9942 216.128 66.3159 216.286 66.6065C216.444 66.8884 216.671 67.1483 216.969 67.3862C217.266 67.624 217.629 67.8486 218.056 68.06C218.484 68.2715 218.976 68.4741 219.534 68.6679C220.482 68.9938 221.309 69.355 222.016 69.7514C222.722 70.1478 223.303 70.5927 223.758 71.086C224.223 71.5704 224.567 72.1211 224.79 72.7377C225.022 73.3542 225.139 74.0547 225.139 74.8386C225.139 75.6314 224.994 76.3539 224.706 77.0057C224.428 77.6487 224.019 78.1993 223.48 78.6574C222.94 79.1154 222.29 79.4722 221.528 79.7277C220.766 79.9743 219.91 80.0977 218.962 80.0977C218.089 80.0977 217.248 79.9743 216.439 79.7277C215.64 79.481 214.924 79.1066 214.292 78.6045C213.66 78.0936 213.158 77.4549 212.786 76.6885C212.424 75.9222 212.243 75.0235 212.243 73.993H215.63C215.63 74.6095 215.709 75.1382 215.867 75.5786C216.025 76.0102 216.253 76.367 216.551 76.6489C216.857 76.922 217.215 77.1246 217.624 77.2567C218.042 77.3801 218.507 77.4417 219.018 77.4417C219.65 77.4417 220.166 77.336 220.566 77.1246C220.975 76.9044 221.277 76.6004 221.472 76.2129C221.667 75.8253 221.765 75.3759 221.765 74.8651C221.765 74.4688 221.718 74.1162 221.625 73.808C221.542 73.491 221.379 73.2045 221.137 72.9491C220.896 72.6937 220.552 72.4425 220.106 72.1959C219.669 71.9493 219.102 71.6982 218.405 71.4427C217.606 71.152 216.857 70.8349 216.16 70.4914C215.472 70.139 214.864 69.7426 214.334 69.3021C213.813 68.8529 213.404 68.3287 213.107 67.7297C212.81 67.1307 212.661 66.4347 212.661 65.642C212.661 64.8581 212.805 64.1443 213.093 63.5013C213.39 62.8496 213.809 62.29 214.348 61.8232C214.896 61.3476 215.547 60.9819 216.3 60.7265C217.052 60.4622 217.884 60.3301 218.795 60.3301Z" fill="#F0F0F0"/>
<path d="M233.936 60.3301C235.246 60.3301 236.366 60.5944 237.296 61.1229C238.234 61.6514 238.95 62.3607 239.443 63.2503C239.945 64.1399 240.195 65.1267 240.196 66.2101H236.822C236.822 65.5848 236.719 65.0297 236.515 64.5452C236.31 64.0608 235.994 63.6819 235.567 63.4089C235.139 63.1358 234.586 62.9992 233.908 62.9992C233.285 62.9992 232.769 63.1138 232.36 63.3428C231.961 63.5718 231.663 63.8847 231.468 64.281C231.282 64.6773 231.189 65.1311 231.189 65.642C231.189 65.9942 231.268 66.3159 231.426 66.6065C231.584 66.8884 231.812 67.1483 232.109 67.3862C232.407 67.624 232.769 67.8486 233.197 68.06C233.624 68.2715 234.117 68.4741 234.675 68.6679C235.623 68.9938 236.45 69.355 237.156 69.7514C237.863 70.1478 238.444 70.5927 238.899 71.086C239.364 71.5704 239.708 72.1211 239.931 72.7377C240.163 73.3542 240.279 74.0547 240.279 74.8386C240.279 75.6314 240.135 76.3539 239.847 77.0057C239.568 77.6487 239.159 78.1993 238.62 78.6574C238.081 79.1154 237.43 79.4722 236.668 79.7277C235.906 79.9743 235.051 80.0977 234.103 80.0977C233.229 80.0977 232.388 79.9743 231.58 79.7277C230.78 79.481 230.065 79.1066 229.433 78.6045C228.801 78.0936 228.299 77.4549 227.927 76.6885C227.565 75.9222 227.383 75.0235 227.383 73.993H230.771C230.771 74.6095 230.85 75.1382 231.008 75.5786C231.166 76.0102 231.394 76.367 231.691 76.6489C231.998 76.922 232.356 77.1246 232.765 77.2567C233.183 77.3801 233.648 77.4417 234.159 77.4417C234.791 77.4417 235.307 77.336 235.706 77.1246C236.115 76.9044 236.417 76.6004 236.613 76.2129C236.808 75.8253 236.905 75.3759 236.905 74.8651C236.905 74.4688 236.859 74.1162 236.766 73.808C236.682 73.491 236.52 73.2045 236.278 72.9491C236.036 72.6937 235.692 72.4425 235.246 72.1959C234.809 71.9493 234.242 71.6982 233.545 71.4427C232.746 71.152 231.998 70.8349 231.301 70.4914C230.613 70.139 230.004 69.7426 229.474 69.3021C228.954 68.8529 228.545 68.3287 228.248 67.7297C227.95 67.1307 227.801 66.4347 227.801 65.642C227.801 64.8581 227.946 64.1443 228.234 63.5013C228.531 62.8496 228.949 62.29 229.488 61.8232C230.037 61.3476 230.687 60.9819 231.44 60.7265C232.193 60.4622 233.025 60.3301 233.936 60.3301Z" fill="#F0F0F0"/>
<path d="M285.994 60.3301C287.304 60.3301 288.424 60.5944 289.354 61.1229C290.292 61.6514 291.008 62.3607 291.501 63.2503C292.002 64.1399 292.253 65.1267 292.253 66.2101H288.88C288.88 65.5848 288.777 65.0297 288.573 64.5452C288.368 64.0608 288.052 63.6819 287.625 63.4089C287.197 63.1358 286.644 62.9992 285.966 62.9992C285.343 62.9992 284.827 63.1138 284.418 63.3428C284.019 63.5718 283.721 63.8847 283.526 64.281C283.34 64.6773 283.247 65.1311 283.247 65.642C283.247 65.9942 283.326 66.3159 283.484 66.6065C283.642 66.8884 283.87 67.1483 284.167 67.3862C284.465 67.624 284.827 67.8486 285.255 68.06C285.682 68.2715 286.175 68.4741 286.733 68.6679C287.681 68.9938 288.508 69.355 289.214 69.7514C289.92 70.1478 290.501 70.5927 290.957 71.086C291.422 71.5704 291.765 72.1211 291.989 72.7377C292.221 73.3542 292.337 74.0547 292.337 74.8386C292.337 75.6314 292.193 76.3539 291.905 77.0057C291.626 77.6487 291.217 78.1993 290.678 78.6574C290.139 79.1154 289.488 79.4722 288.726 79.7277C287.964 79.9743 287.109 80.0977 286.161 80.0977C285.287 80.0977 284.446 79.9743 283.638 79.7277C282.838 79.481 282.123 79.1066 281.491 78.6045C280.859 78.0936 280.357 77.4549 279.985 76.6885C279.622 75.9222 279.441 75.0235 279.441 73.993H282.829C282.829 74.6095 282.908 75.1382 283.066 75.5786C283.224 76.0102 283.452 76.367 283.749 76.6489C284.056 76.922 284.414 77.1246 284.823 77.2567C285.241 77.3801 285.706 77.4417 286.217 77.4417C286.849 77.4417 287.365 77.336 287.764 77.1246C288.173 76.9044 288.475 76.6004 288.67 76.2129C288.866 75.8253 288.963 75.3759 288.963 74.8651C288.963 74.4688 288.917 74.1162 288.824 73.808C288.74 73.491 288.577 73.2045 288.336 72.9491C288.094 72.6937 287.75 72.4425 287.304 72.1959C286.867 71.9493 286.3 71.6982 285.603 71.4427C284.804 71.152 284.056 70.8349 283.359 70.4914C282.671 70.139 282.062 69.7426 281.532 69.3021C281.012 68.8529 280.603 68.3287 280.305 67.7297C280.008 67.1307 279.859 66.4347 279.859 65.642C279.859 64.8581 280.003 64.1443 280.292 63.5013C280.589 62.8496 281.007 62.29 281.546 61.8232C282.095 61.3476 282.745 60.9819 283.498 60.7265C284.251 60.4622 285.083 60.3301 285.994 60.3301Z" fill="#F0F0F0"/>
<path d="M309.471 60.3301C310.893 60.3301 312.078 60.568 313.026 61.0436C313.984 61.5105 314.713 62.2065 315.215 63.1314C315.726 64.0474 316.024 65.1664 316.107 66.4876H312.803C312.729 65.6773 312.566 65.0209 312.315 64.5188C312.074 64.008 311.725 63.629 311.27 63.3824C310.814 63.1358 310.229 63.0124 309.513 63.0124C308.863 63.0124 308.305 63.1182 307.84 63.3296C307.375 63.541 306.994 63.8714 306.697 64.3206C306.4 64.761 306.181 65.3249 306.042 66.0119C305.902 66.699 305.833 67.5184 305.833 68.4697V71.9184C305.833 72.8873 305.921 73.7199 306.097 74.4158C306.274 75.1116 306.53 75.6843 306.864 76.1336C307.208 76.574 307.631 76.9 308.133 77.1114C308.635 77.314 309.206 77.4153 309.848 77.4153C310.48 77.4153 310.982 77.3536 311.353 77.2303C311.725 77.107 312.013 76.9704 312.218 76.8207C312.432 76.6622 312.604 76.5388 312.734 76.4507V72.4866H309.457V69.9628H316.107V77.5474C315.857 77.8381 315.475 78.1861 314.964 78.5913C314.462 78.9877 313.784 79.3401 312.929 79.6484C312.083 79.9479 311.014 80.0977 309.722 80.0977C308.635 80.0977 307.64 79.9303 306.739 79.5955C305.847 79.2608 305.08 78.7542 304.438 78.076C303.797 77.3977 303.304 76.5519 302.961 75.539C302.617 74.5172 302.445 73.3101 302.445 71.9184V68.4961C302.445 67.122 302.598 65.9238 302.905 64.902C303.221 63.8803 303.681 63.03 304.285 62.3518C304.889 61.6647 305.623 61.1581 306.488 60.8322C307.352 60.4975 308.347 60.3301 309.471 60.3301Z" fill="#F0F0F0"/>
<path fill-rule="evenodd" clip-rule="evenodd" d="M132.762 60.5944C133.71 60.5944 134.555 60.6957 135.299 60.8983C136.042 61.1009 136.675 61.4181 137.195 61.8496C137.725 62.2812 138.124 62.8232 138.394 63.4749C138.673 64.1267 138.812 64.9021 138.812 65.8005C138.812 66.5844 138.636 67.3069 138.282 67.9676C137.929 68.6194 137.404 69.1568 136.707 69.5796C136.564 69.6658 136.412 69.742 136.254 69.8137C136.678 69.9283 137.053 70.1005 137.376 70.3328C137.99 70.7644 138.44 71.3239 138.729 72.0109C139.017 72.6979 139.161 73.4337 139.161 74.2176C139.161 75.442 138.919 76.4728 138.436 77.3096C137.962 78.1376 137.274 78.7675 136.372 79.1991C135.471 79.622 134.383 79.8334 133.11 79.8334H126.711V60.5944H132.762ZM130.099 77.151H133.11C133.714 77.151 134.212 77.0277 134.602 76.781C134.992 76.5344 135.285 76.1908 135.48 75.7504C135.675 75.31 135.773 74.7945 135.773 74.2044C135.773 73.5879 135.689 73.0503 135.522 72.5923C135.355 72.1344 135.085 71.7818 134.713 71.5352C134.342 71.2886 133.849 71.1652 133.236 71.1652H130.099V77.151ZM130.099 68.7075H132.748C133.315 68.7075 133.798 68.6018 134.198 68.3904C134.597 68.179 134.899 67.8706 135.104 67.4654C135.317 67.0603 135.424 66.5712 135.424 65.9987C135.424 65.3646 135.327 64.8491 135.132 64.4527C134.946 64.0476 134.658 63.7524 134.267 63.5674C133.877 63.3825 133.375 63.2899 132.762 63.2899H130.099V68.7075Z" fill="#F0F0F0"/>
<path d="M177.417 79.8334H174.029V60.5944H177.417V79.8334Z" fill="#F0F0F0"/>
<path d="M191.832 74.0062V60.5944H195.094V79.8334H191.776L184.61 66.5141V79.8334H181.334V60.5944H184.61L191.832 74.0062Z" fill="#F0F0F0"/>
<path d="M210.151 63.2899H202.316V68.6018H209.05V71.2445H202.316V77.151H210.235V79.8334H198.928V60.5944H210.151V63.2899Z" fill="#F0F0F0"/>
<path fill-rule="evenodd" clip-rule="evenodd" d="M255.015 60.5944C256.177 60.5944 257.228 60.7706 258.166 61.1229C259.105 61.4752 259.909 61.9951 260.578 62.6821C261.257 63.3603 261.777 64.2018 262.14 65.2059C262.502 66.2101 262.683 67.3642 262.683 68.6679V71.7731C262.683 73.0767 262.502 74.2309 262.14 75.235C261.777 76.2304 261.257 77.0718 260.578 77.7588C259.9 78.4371 259.082 78.9525 258.124 79.3048C257.167 79.6572 256.084 79.8334 254.876 79.8334H249.899V60.5944H255.015ZM253.287 77.151H254.876C255.963 77.151 256.832 76.9616 257.483 76.5828C258.134 76.1952 258.603 75.605 258.891 74.8122C259.179 74.0194 259.323 73.0062 259.323 71.7731V68.6414C259.323 67.6902 259.24 66.8796 259.072 66.2101C258.914 65.532 258.663 64.9812 258.32 64.5584C257.985 64.1269 257.543 63.8096 256.995 63.6071C256.447 63.3957 255.787 63.2899 255.015 63.2899H253.287V77.151Z" fill="#F0F0F0"/>
<path d="M277.35 63.2899H269.515V68.6018H276.248V71.2445H269.515V77.151H277.434V79.8334H266.127V60.5944H277.35V63.2899Z" fill="#F0F0F0"/>
<path d="M298.904 79.8334H295.516V60.5944H298.904V79.8334Z" fill="#F0F0F0"/>
<path d="M330.105 74.0062V60.5944H333.367V79.8334H330.049L322.883 66.5141V79.8334H319.607V60.5944H322.883L330.105 74.0062Z" fill="#F0F0F0"/>
</g>
</svg>
